HIERARCHY
ROOT Hips
{
    OFFSET   0.000000   0.000000   0.000000
    CHANNELS 6 Xposition Yposition Zposition Zrotation Xrotation Yrotation
    JOINT Chest
    {
        OFFSET   0.000000   8.007230   0.000000
        CHANNELS 3 Zrotation Xrotation Yrotation
        JOINT Chest2
        {
            OFFSET   0.000000  22.077100   0.000000
            CHANNELS 3 Zrotation Xrotation Yrotation
            JOINT Neck
            {
                OFFSET   0.000000  23.254700   0.000000
                CHANNELS 3 Zrotation Xrotation Yrotation
                JOINT Head
                {
                    OFFSET   0.000010  14.370000   1.956610
                    CHANNELS 3 Zrotation Xrotation Yrotation
                    End Site
                    {
                        OFFSET   0.000000  19.566000   0.000000
                    }
                }
            }
            JOINT LeftCollar
            {
                OFFSET   3.911900  19.017000  -0.467063
                CHANNELS 3 Zrotation Xrotation Yrotation
                JOINT LeftShoulder
                {
                    OFFSET  10.383700   0.000000   0.000000
                    CHANNELS 3 Zrotation Xrotation Yrotation
                    JOINT LeftElbow
                    {
                        OFFSET  26.662100   0.001671   0.000522
                        CHANNELS 3 Zrotation Xrotation Yrotation
                        JOINT LeftWrist
                        {
                            OFFSET  28.869000   0.000037  -0.000114
                            CHANNELS 3 Zrotation Xrotation Yrotation
                            JOINT LeftFinger0
                            {
                                OFFSET   2.044650  -2.323450   3.252850
                                CHANNELS 3 Zrotation Xrotation Yrotation
                                JOINT LeftFinger01
                                {
                                    OFFSET   3.088140   0.000000   0.000000
                                    CHANNELS 3 Zrotation Xrotation Yrotation
                                    JOINT LeftFinger02
                                    {
                                        OFFSET   2.639460   0.000000   0.000000
                                        CHANNELS 3 Zrotation Xrotation Yrotation
                                        End Site
                                        {
                                            OFFSET   2.582190   0.000000   0.000000
                                        }
                                    }
                                }
                            }
                            JOINT LeftFinger1
                            {
                                OFFSET   8.364480   0.000000   3.252850
                                CHANNELS 3 Zrotation Xrotation Yrotation
                                JOINT LeftFinger11
                                {
                                    OFFSET   4.646930   0.000000   0.000000
                                    CHANNELS 3 Zrotation Xrotation Yrotation
                                    JOINT LeftFinger12
                                    {
                                        OFFSET   2.323470   0.000000   0.000000
                                        CHANNELS 3 Zrotation Xrotation Yrotation
                                        End Site
                                        {
                                            OFFSET   2.273050   0.000000   0.000000
                                        }
                                    }
                                }
                            }
                            JOINT LeftFinger2
                            {
                                OFFSET   8.364490   0.000016   1.078090
                                CHANNELS 3 Zrotation Xrotation Yrotation
                                JOINT LeftFinger21
                                {
                                    OFFSET   5.111620   0.000000   0.000000
                                    CHANNELS 3 Zrotation Xrotation Yrotation
                                    JOINT LeftFinger22
                                    {
                                        OFFSET   2.788150   0.000013   0.000000
                                        CHANNELS 3 Zrotation Xrotation Yrotation
                                        End Site
                                        {
                                            OFFSET   2.727660   0.000000   0.000000
                                        }
                                    }
                                }
                            }
                            JOINT LeftFinger3
                            {
                                OFFSET   7.899780   0.000016  -1.078090
                                CHANNELS 3 Zrotation Xrotation Yrotation
                                JOINT LeftFinger31
                                {
                                    OFFSET   4.646930   0.000000   0.000000
                                    CHANNELS 3 Zrotation Xrotation Yrotation
                                    JOINT LeftFinger32
                                    {
                                        OFFSET   2.323470   0.000000   0.000000
                                        CHANNELS 3 Zrotation Xrotation Yrotation
                                        End Site
                                        {
                                            OFFSET   2.273050   0.000000   0.000000
                                        }
                                    }
                                }
                            }
                            JOINT LeftFinger4
                            {
                                OFFSET   7.435080   0.000000  -3.252850
                                CHANNELS 3 Zrotation Xrotation Yrotation
                                JOINT LeftFinger41
                                {
                                    OFFSET   3.717550   0.000000   0.000000
                                    CHANNELS 3 Zrotation Xrotation Yrotation
                                    JOINT LeftFinger42
                                    {
                                        OFFSET   1.858760   0.000000   0.000000
                                        CHANNELS 3 Zrotation Xrotation Yrotation
                                        End Site
                                        {
                                            OFFSET   1.818440   0.000000   0.000000
                                        }
                                    }
                                }
                            }
                        }
                    }
                }
            }
            JOINT RightCollar
            {
                OFFSET  -3.911900  19.017000  -0.467064
                CHANNELS 3 Zrotation Xrotation Yrotation
                JOINT RightShoulder
                {
                    OFFSET -10.383700   0.000000   0.000000
                    CHANNELS 3 Zrotation Xrotation Yrotation
                    JOINT RightElbow
                    {
                        OFFSET -26.662100   0.001633   0.000260
                        CHANNELS 3 Zrotation Xrotation Yrotation
                        JOINT RightWrist
                        {
                            OFFSET -28.869000  -0.000045  -0.000080
                            CHANNELS 3 Zrotation Xrotation Yrotation
                            JOINT RightFinger0
                            {
                                OFFSET  -2.044660  -2.323490   3.252850
                                CHANNELS 3 Zrotation Xrotation Yrotation
                                JOINT RightFinger01
                                {
                                    OFFSET  -3.088140   0.000000   0.000000
                                    CHANNELS 3 Zrotation Xrotation Yrotation
                                    JOINT RightFinger02
                                    {
                                        OFFSET  -2.639450   0.000000   0.000000
                                        CHANNELS 3 Zrotation Xrotation Yrotation
                                        End Site
                                        {
                                            OFFSET  -2.582190   0.000000   0.000000
                                        }
                                    }
                                }
                            }
                            JOINT RightFinger1
                            {
                                OFFSET  -8.364480   0.000000   3.252850
                                CHANNELS 3 Zrotation Xrotation Yrotation
                                JOINT RightFinger11
                                {
                                    OFFSET  -4.646920   0.000000   0.000000
                                    CHANNELS 3 Zrotation Xrotation Yrotation
                                    JOINT RightFinger12
                                    {
                                        OFFSET  -2.323470   0.000000   0.000000
                                        CHANNELS 3 Zrotation Xrotation Yrotation
                                        End Site
                                        {
                                            OFFSET  -2.273050   0.000000   0.000000
                                        }
                                    }
                                }
                            }
                            JOINT RightFinger2
                            {
                                OFFSET  -8.364480   0.000000   1.078090
                                CHANNELS 3 Zrotation Xrotation Yrotation
                                JOINT RightFinger21
                                {
                                    OFFSET  -5.111610   0.000000   0.000000
                                    CHANNELS 3 Zrotation Xrotation Yrotation
                                    JOINT RightFinger22
                                    {
                                        OFFSET  -2.788160   0.000000   0.000000
                                        CHANNELS 3 Zrotation Xrotation Yrotation
                                        End Site
                                        {
                                            OFFSET  -2.727660   0.000000   0.000000
                                        }
                                    }
                                }
                            }
                            JOINT RightFinger3
                            {
                                OFFSET  -7.899780   0.000000  -1.078090
                                CHANNELS 3 Zrotation Xrotation Yrotation
                                JOINT RightFinger31
                                {
                                    OFFSET  -4.646930   0.000000   0.000000
                                    CHANNELS 3 Zrotation Xrotation Yrotation
                                    JOINT RightFinger32
                                    {
                                        OFFSET  -2.323470   0.000000   0.000000
                                        CHANNELS 3 Zrotation Xrotation Yrotation
                                        End Site
                                        {
                                            OFFSET  -2.273050   0.000000   0.000000
                                        }
                                    }
                                }
                            }
                            JOINT RightFinger4
                            {
                                OFFSET  -7.435090   0.000000  -3.252850
                                CHANNELS 3 Zrotation Xrotation Yrotation
                                JOINT RightFinger41
                                {
                                    OFFSET  -3.717550   0.000000   0.000000
                                    CHANNELS 3 Zrotation Xrotation Yrotation
                                    JOINT RightFinger42
                                    {
                                        OFFSET  -1.858760   0.000000   0.000000
                                        CHANNELS 3 Zrotation Xrotation Yrotation
                                        End Site
                                        {
                                            OFFSET  -1.818440   0.000000   0.000000
                                        }
                                    }
                                }
                            }
                        }
                    }
                }
            }
        }
    }
    JOINT LeftHip
    {
        OFFSET   9.782990   0.000000   0.000000
        CHANNELS 3 Zrotation Xrotation Yrotation
        JOINT LeftKnee
        {
            OFFSET  -0.000063 -41.789100   0.001657
            CHANNELS 3 Zrotation Xrotation Yrotation
            JOINT LeftAnkle
            {
                OFFSET   0.000078 -41.133200  -0.000113
                CHANNELS 3 Zrotation Xrotation Yrotation
                JOINT LeftToe
                {
                    OFFSET   0.000000  -6.358970  14.674500
                    CHANNELS 3 Zrotation Xrotation Yrotation
                    End Site
                    {
                        OFFSET   0.000000   0.000000   3.913200
                    }
                }
            }
        }
    }
    JOINT RightHip
    {
        OFFSET  -9.782990   0.000000   0.000000
        CHANNELS 3 Zrotation Xrotation Yrotation
        JOINT RightKnee
        {
            OFFSET   0.000053 -41.789200   0.000277
            CHANNELS 3 Zrotation Xrotation Yrotation
            JOINT RightAnkle
            {
                OFFSET   0.000030 -41.133200  -0.000150
                CHANNELS 3 Zrotation Xrotation Yrotation
                JOINT RightToe
                {
                    OFFSET   0.000000  -6.358960  14.674500
                    CHANNELS 3 Zrotation Xrotation Yrotation
                    End Site
                    {
                        OFFSET   0.000000   0.000000   3.913200
                    }
                }
            }
        }
    }
}
MOTION
Frames: 6
Frame Time:   0.016667
  0.855803  89.514500   0.589159  -1.959400  -6.806470  -1.294260   0.096251   3.806450   0.423939   0.164755   7.613530   0.844253   0.707943   0.022210  -0.008305   1.160740   0.045886   1.321890  -2.961820  -2.493280   1.021510 -75.454500  11.686500   1.869380  -0.675756  -4.717080 -14.908500  10.230300  -6.208480   1.520550  37.854400  26.900800 -57.301100 -29.253300   0.000000   0.000000  -9.626630   0.001549   0.000000 -28.631600   4.427860  -8.049190 -23.680800   0.008205   0.001570 -16.576600   0.011864   0.000460 -28.097800  -2.273410   4.236790 -33.250100   0.000000   0.000000 -22.144600  -0.000411   0.000000 -28.313100  -2.288820   4.228330 -35.047000   0.001515  -0.000785 -23.341300  -0.004579  -0.000287 -28.709500  -2.321100   4.212240 -43.192900   0.000439  -0.001196 -28.766400   0.000725   0.000151   8.975340   1.007620   3.577590  71.144300   3.363860  -3.692890   0.405423 -10.776600   8.751200  -8.513920  -3.486720   4.361180 -42.188400  37.611600  70.029800  30.653600   0.000549  -0.011508  10.326800   0.001011   0.000000  27.838700   6.202310  11.562100  23.291400   0.007443  -0.002877  16.304000   0.001011  -0.003999  28.324000  -1.772160  -3.284620  34.822300   0.000549   0.005749  23.191700   0.003601  -0.001597  27.579500  -1.729150  -3.307450  29.810000   0.000617   0.003055  19.853400   0.003374   0.001906  35.879700  -2.189200  -3.022870  53.906200   0.003518  -0.004800  35.901600   0.004922  -0.003527   0.554891  10.176200   1.870210   1.114920   0.118562   6.471590   0.130713  -3.971340   2.617320   0.000000   0.000000   0.000000   1.839380   8.644210   2.034440  -0.075191   1.314790  -5.659320   0.024543  -3.945230  -3.116330  -0.000000   0.000000   0.000000
  0.855876  89.514500   0.574889  -1.958980  -6.806500  -1.285140   0.096495   3.809080   0.425262   0.165191   7.618780   0.846888   0.707934   0.022149  -0.008304   1.161020   0.045813   1.321890  -2.961790  -2.493210   1.021510 -75.442100  11.696900   1.867390  -0.679572  -4.729750 -14.910300  10.252300  -6.208170   1.515090  37.844300  26.893000 -57.302700 -29.263700   0.000000   0.000000  -9.631840   0.001555   0.000000 -28.640700   4.433260  -8.056330 -23.688800   0.008205   0.001567 -16.582200   0.011864   0.000462 -28.099100  -2.273550   4.234780 -33.269300   0.000000   0.000000 -22.157400  -0.000411  -0.000000 -28.313200  -2.288960   4.226370 -35.062800   0.001516  -0.000786 -23.351800  -0.004579  -0.000287 -28.721200  -2.321120   4.209750 -43.210300   0.000438  -0.001196 -28.778000   0.000725   0.000151   8.975620   1.003080   3.577580  71.134600   3.381900  -3.692950   0.410773 -10.776800   8.747340  -8.485330  -3.486420   4.356720 -42.183500  37.613000  70.027000  30.670800   0.000544  -0.011505  10.335400   0.001011  -0.000000  27.842400   6.190940  11.541100  23.291100   0.007443  -0.002876  16.303800   0.001014  -0.003997  28.320000  -1.792420  -3.322370  34.820100   0.000546   0.005747  23.190300   0.003598  -0.001599  27.574800  -1.748940  -3.345440  29.809700   0.000615   0.003054  19.853200   0.003371   0.001904  35.876900  -2.214180  -3.057680  53.905500   0.003515  -0.004802  35.901100   0.004919  -0.003524   0.560042  10.144900   1.870070   1.116670   0.146325   6.465940   0.127085  -3.969580   2.610730  -0.000000   0.000000  -0.000000   1.840380   8.631980   2.026270  -0.074453   1.321810  -5.665990   0.021641  -3.939380  -3.110770  -0.000000   0.000000   0.000000
  0.855949  89.514400   0.550775  -1.958480  -6.806540  -1.269090   0.096620   3.814230   0.428083   0.165152   7.629040   0.852549   0.707926   0.022043  -0.008302   1.162960   0.045676   1.321900  -2.961730  -2.493140   1.021510 -75.421000  11.712700   1.861930  -0.684910  -4.747430 -14.914300  10.292600  -6.207880   1.505230  37.826500  26.881400 -57.303200 -29.284100   0.000000   0.000000  -9.642040   0.001561   0.000000 -28.658600   4.440840  -8.063500 -23.704100   0.008207   0.001565 -16.592900   0.011864   0.000469 -28.102600  -2.273690   4.232770 -33.307500   0.000000   0.000000 -22.182800  -0.000412   0.000000 -28.313300  -2.289100   4.224410 -35.095500   0.001518  -0.000786 -23.373600  -0.004579  -0.000287 -28.741100  -2.321150   4.207260 -43.240100   0.000438  -0.001196 -28.797900   0.000725   0.000151   8.976250   0.993082   3.577570  71.121600   3.414670  -3.693070   0.422449 -10.777300   8.736840  -8.453320  -3.484240   4.346280 -42.175500  37.620900  70.019300  30.688000   0.000536  -0.011502  10.344000   0.001009   0.000000  27.840500   6.179570  11.520100  23.289100   0.007444  -0.002872  16.302400   0.001019  -0.003993  28.314100  -1.812680  -3.360110  34.807600   0.000540   0.005743  23.181900   0.003591  -0.001605  27.568000  -1.768740  -3.383430  29.807400   0.000609   0.003050  19.851700   0.003363   0.001896  35.873200  -2.239150  -3.092500  53.900600   0.003505  -0.004809  35.897800   0.004912  -0.003516   0.567602  10.113500   1.869940   1.118430   0.174089   6.458100   0.122666  -3.957080   2.599720  -0.000000   0.000000  -0.000000   1.842220   8.612170   2.014280  -0.073225   1.333390  -5.678850   0.016278  -3.929730  -3.101670  -0.000000   0.000000  -0.000000
  0.853009  89.514400   0.530713  -1.958670  -6.809970  -1.254410   0.095670   3.819460   0.431650   0.162911   7.639510   0.859775   0.711564   0.021938  -0.008299   1.170000   0.045489   1.320630  -2.961850  -2.493360   1.016650 -75.402900  11.719900   1.853040  -0.685148  -4.753970 -14.919600  10.333000  -6.209380   1.495040  37.810700  26.875800 -57.300900 -29.307100   0.000000   0.000000  -9.653570   0.001550  -0.000000 -28.678200   4.443770  -8.061790 -23.720300   0.008210   0.001567 -16.604200   0.011864   0.000480 -28.108400  -2.272590   4.237100 -33.352300   0.000000   0.000000 -22.212600  -0.000412   0.000000 -28.316400  -2.287990   4.228800 -35.133600   0.001519  -0.000786 -23.399000  -0.004579  -0.000287 -28.757100  -2.320700   4.211280 -43.263900   0.000439  -0.001196 -28.813800   0.000726   0.000151   8.980800   0.980106   3.579060  71.117400   3.446940  -3.697070   0.440899 -10.793600   8.718800  -8.451280  -3.463020   4.330700 -42.199100  37.644200  70.005100  30.680800   0.000534  -0.011507  10.339200   0.001002   0.000000  27.810600   6.179330  11.532200  23.266700   0.007446  -0.002870  16.286600   0.001020  -0.003987  28.310400  -1.797470  -3.332390  34.768100   0.000528   0.005736  23.155600   0.003580  -0.001615  27.564200  -1.753890  -3.355510  29.787300   0.000599   0.003039  19.838400   0.003350   0.001883  35.843000  -2.218970  -3.068050  53.852200   0.003491  -0.004821  35.865600   0.004901  -0.003501   0.571381  10.148800   1.866240   1.118250   0.109881   6.455000   0.120577  -3.920750   2.591880   0.000000   0.000000   0.000000   1.844950   8.596810   2.008660  -0.072214   1.342280  -5.693360   0.010876  -3.922110  -3.094320  -0.000000   0.000000  -0.000000
  0.847453  89.514400   0.510407  -1.959090  -6.818060  -1.238830   0.093669   3.826470   0.435918   0.158621   7.653530   0.868463   0.718327   0.021850  -0.008292   1.180510   0.045367   1.318400  -2.962060  -2.494920   1.009200 -75.384600  11.729600   1.841600  -0.682060  -4.757120 -14.925900  10.375600  -6.214130   1.485290  37.793900  26.868900 -57.295700 -29.333100   0.000000  -0.000000  -9.666570   0.001535  -0.000000 -28.701300   4.445220  -8.057240 -23.739200   0.008216   0.001569 -16.617400   0.011864   0.000495 -28.115000  -2.271490   4.243530 -33.401400   0.000000   0.000000 -22.245300  -0.000413   0.000000 -28.322400  -2.286870   4.235280 -35.182500   0.001522  -0.000787 -23.431600  -0.004579  -0.000287 -28.775900  -2.320250   4.217050 -43.292100   0.000440  -0.001197 -28.832600   0.000727   0.000151   8.988920   0.963937   3.582370  71.117900   3.481580  -3.705510   0.462046 -10.818000   8.699270  -8.453140  -3.443720   4.313250 -42.241700  37.669900  70.003700  30.673500   0.000528  -0.011519  10.334400   0.000995   0.000000  27.786300   6.179200  11.545100  23.245900   0.007449  -0.002867  16.272100   0.001021  -0.003977  28.308500  -1.782260  -3.304660  34.739000   0.000512   0.005728  23.136200   0.003564  -0.001628  27.562400  -1.739040  -3.327590  29.769200   0.000586   0.003025  19.826300   0.003334   0.001865  35.813600  -2.198790  -3.043610  53.808000   0.003473  -0.004837  35.836200   0.004886  -0.003480   0.575056  10.197500   1.861370   1.118200   0.019674   6.454100   0.118097  -3.878560   2.582020  -0.000000   0.000000  -0.000000   1.849490   8.583560   2.003850  -0.071277   1.351330  -5.708710   0.004866  -3.914720  -3.087940  -0.000000   0.000000   0.000000
  0.841650  89.515300   0.490270  -1.959470  -6.829520  -1.223020   0.090845   3.836460   0.440771   0.152552   7.673490   0.878393   0.725107   0.021816  -0.008276   1.191460   0.045381   1.316640  -2.962130  -2.499200   1.004390 -75.366800  11.749800   1.828370  -0.676294  -4.758270 -14.931800  10.418200  -6.223770   1.479010  37.770200  26.853900 -57.279800 -29.361600   0.000000   0.000040  -9.680810   0.001531   0.000000 -28.728700   4.446020  -8.049090 -23.761400   0.008225   0.001568 -16.632900   0.011864   0.000509 -28.121100  -2.273100   4.246440 -33.448700   0.000000   0.000000 -22.276800  -0.000417   0.000000 -28.329200  -2.288540   4.238150 -35.249200   0.001528  -0.000788 -23.476000  -0.004579  -0.000287 -28.802200  -2.323160   4.219120 -43.331700   0.000440  -0.001197 -28.858900   0.000727   0.000151   8.997600   0.945670   3.586610  71.124000   3.513670  -3.715440   0.479589 -10.832700   8.684350  -8.492500  -3.453760   4.297460 -42.260000  37.689500  70.032300  30.674100   0.000511  -0.011541  10.335700   0.000996   0.000000  27.794300   6.182410  11.546200  23.252700   0.007456  -0.002862  16.276900   0.001020  -0.003964  28.312500  -1.788290  -3.315240  34.779400   0.000494   0.005719  23.163100   0.003544  -0.001644  27.568800  -1.745080  -3.338180  29.803700   0.000571   0.003008  19.849200   0.003314   0.001844  35.826200  -2.206630  -3.052970  53.827500   0.003449  -0.004858  35.849200   0.004870  -0.003455   0.580154  10.216200   1.860250   1.119010  -0.020103   6.454120   0.114234  -3.843100   2.566510   0.000000   0.000000  -0.000000   1.855990   8.574500   1.996870  -0.070548   1.360980  -5.721960  -0.001418  -3.907630  -3.083180  -0.000000   0.000000   0.000000
